<svg width="370" height="370" viewBox="0 0 370 370" fill="none" xmlns="http://www.w3.org/2000/svg">
<g clip-path="url(#clip0_1731_282)">
<rect width="369.6" height="369.6" rx="37.408" fill="black"/>
<path fill-rule="evenodd" clip-rule="evenodd" d="M184.551 249.799C182.306 249.84 163.923 250.284 149.938 254.331C135.025 258.651 123.872 258.152 118.083 258.378C112.294 258.609 86.0109 257.69 68.8569 246.116C51.7028 234.548 39.3951 212.021 39.9726 187.701C40.5501 163.386 55.08 139.676 93.6247 124.001C121.77 112.557 154.392 108.75 184.777 108.75C215.158 108.75 247.78 112.557 275.925 124.001C314.47 139.676 329.004 163.386 329.582 187.701C330.159 212.021 317.852 234.548 300.693 246.116C283.539 257.69 257.26 258.609 251.467 258.378C245.678 258.152 234.53 258.651 219.617 254.331C204.699 250.016 184.777 249.799 184.777 249.799H184.551Z" fill="white"/>
<path d="M118.025 175.103C131.382 174.586 142.59 179.007 151.849 188.145C158.455 194.664 159.157 203.022 153.932 208.945C148.642 214.946 140.474 215.14 133.124 209.439C121.819 200.68 114.445 200.643 102.793 209.277C94.6991 215.279 86.0967 215.099 81.3334 208.261C76.0204 200.638 77.7899 193.648 84.475 187.596C94.0893 178.892 105.334 174.627 118.025 175.103Z" fill="black"/>
<path d="M252.01 175.103C265.366 174.586 276.574 179.007 285.833 188.145C292.439 194.664 293.142 203.022 287.916 208.945C282.627 214.946 274.458 215.14 267.108 209.439C255.803 200.68 248.429 200.643 236.778 209.277C228.683 215.279 220.081 215.099 215.318 208.261C210.005 200.638 211.774 193.648 218.459 187.596C228.074 178.892 239.319 174.627 252.01 175.103Z" fill="black"/>
</g>
<defs>
<clipPath id="clip0_1731_282">
<rect width="369.6" height="369.6" rx="67.2" fill="white"/>
</clipPath>
</defs>
</svg>
