<svg width="64" height="64" viewBox="0 0 64 64" fill="none" xmlns="http://www.w3.org/2000/svg">
<g clip-path="url(#clip0_497_1187)">
<rect width="64" height="64" rx="20" fill="black"/>
<path fill-rule="evenodd" clip-rule="evenodd" d="M31.9605 43.2541C31.5717 43.2613 28.3885 43.3381 25.9669 44.0389C23.3845 44.7869 21.4532 44.7005 20.4509 44.7397C19.4485 44.7797 14.8973 44.6205 11.9269 42.6165C8.95645 40.6133 6.82525 36.7125 6.92525 32.5013C7.02525 28.2909 9.54125 24.1853 16.2157 21.4709C21.0893 19.4893 26.7381 18.8301 31.9997 18.8301C37.2605 18.8301 42.9093 19.4893 47.7829 21.4709C54.4573 24.1853 56.9741 28.2909 57.0741 32.5013C57.1741 36.7125 55.0429 40.6133 52.0717 42.6165C49.1013 44.6205 44.5509 44.7797 43.5477 44.7397C42.5453 44.7005 40.6149 44.7869 38.0325 44.0389C35.4493 43.2917 31.9997 43.2541 31.9997 43.2541H31.9605Z" fill="white"/>
<path d="M20.4388 30.3195C22.7516 30.2299 24.6924 30.9955 26.2956 32.5779C27.4396 33.7067 27.5612 35.1539 26.6564 36.1795C25.7404 37.2187 24.326 37.2523 23.0532 36.2651C21.0956 34.7483 19.8188 34.7419 17.8012 36.2371C16.3996 37.2763 14.91 37.2451 14.0852 36.0611C13.1652 34.7411 13.4716 33.5307 14.6292 32.4827C16.294 30.9755 18.2412 30.2371 20.4388 30.3195Z" fill="black"/>
<path d="M43.6381 30.3195C45.9509 30.2299 47.8917 30.9955 49.4949 32.5779C50.6389 33.7067 50.7605 35.1539 49.8557 36.1795C48.9397 37.2187 47.5253 37.2523 46.2525 36.2651C44.2949 34.7483 43.0181 34.7419 41.0005 36.2371C39.5989 37.2763 38.1093 37.2451 37.2845 36.0611C36.3645 34.7411 36.6709 33.5307 37.8285 32.4827C39.4933 30.9755 41.4405 30.2371 43.6381 30.3195Z" fill="black"/>
</g>
<defs>
<clipPath id="clip0_497_1187">
<rect width="64" height="64" fill="white"/>
</clipPath>
</defs>
</svg>
