<svg width="1216" height="652" viewBox="0 0 1216 652" fill="none" xmlns="http://www.w3.org/2000/svg">
<rect width="1216" height="652" fill="#F8F8F8"/>
<circle cx="618.317" cy="309.905" r="73.6" transform="rotate(14 618.317 309.905)" stroke="white" stroke-width="9.6"/>
<path opacity="0.45" d="M517.74 275.734C517.133 276.159 516.345 276.228 515.674 275.915L512.983 274.66C512.312 274.347 511.858 273.699 511.794 272.961L511.535 270.004C511.471 269.266 511.805 268.549 512.412 268.125L514.843 266.422C515.45 265.997 516.238 265.928 516.909 266.241L519.599 267.496C520.271 267.809 520.724 268.456 520.789 269.194L521.048 272.152C521.112 272.89 520.778 273.606 520.171 274.031L517.74 275.734Z" fill="#E12AFB"/>
<path opacity="0.56" d="M700.117 251.057C699.147 251.961 697.769 252.279 696.502 251.891L691.424 250.339C690.156 249.951 689.192 248.917 688.893 247.625L687.699 242.451C687.401 241.16 687.814 239.807 688.784 238.903L692.667 235.282C693.637 234.378 695.015 234.06 696.282 234.447L701.36 236C702.628 236.387 703.592 237.422 703.891 238.713L705.085 243.887C705.383 245.179 704.97 246.531 704 247.435L700.117 251.057Z" fill="#B79DFC"/>
<path opacity="0.55" d="M678.538 215.734C677.932 216.159 677.144 216.228 676.473 215.915L673.782 214.66C673.111 214.347 672.657 213.699 672.593 212.961L672.334 210.004C672.269 209.266 672.603 208.549 673.21 208.125L675.642 206.422C676.249 205.997 677.036 205.928 677.708 206.241L680.398 207.496C681.07 207.809 681.523 208.456 681.588 209.194L681.847 212.152C681.911 212.89 681.577 213.606 680.97 214.031L678.538 215.734Z" fill="#A6EA1C"/>
<path opacity="0.66" d="M735.796 270.342C735.538 270.711 735.104 270.913 734.656 270.874L732.862 270.717C732.414 270.678 732.022 270.403 731.832 269.996L731.071 268.364C730.881 267.956 730.922 267.479 731.18 267.11L732.213 265.635C732.471 265.267 732.905 265.064 733.353 265.104L735.147 265.261C735.595 265.3 735.988 265.575 736.178 265.982L736.939 267.614C737.129 268.021 737.087 268.499 736.829 268.867L735.796 270.342Z" fill="#A684FF"/>
<path opacity="0.2" d="M716.599 382.342C716.341 382.711 715.906 382.913 715.459 382.874L713.665 382.717C713.217 382.678 712.824 382.403 712.634 381.996L711.873 380.364C711.683 379.956 711.725 379.479 711.983 379.11L713.016 377.635C713.274 377.267 713.708 377.064 714.156 377.104L715.95 377.261C716.398 377.3 716.79 377.575 716.98 377.982L717.741 379.614C717.931 380.021 717.89 380.499 717.632 380.867L716.599 382.342Z" fill="#00BCFF"/>
<path opacity="0.45" d="M673.557 350.736C673.092 351.453 672.28 351.866 671.426 351.822L668.008 351.643C667.154 351.598 666.39 351.101 666.002 350.34L664.447 347.29C664.059 346.528 664.107 345.618 664.573 344.901L666.437 342.03C666.903 341.313 667.715 340.899 668.568 340.944L671.987 341.123C672.84 341.168 673.605 341.665 673.993 342.426L675.547 345.476C675.935 346.238 675.887 347.148 675.422 347.865L673.557 350.736Z" fill="#FDB218"/>
<path opacity="0.55" d="M494.803 325.876C494.163 326.861 493.047 327.43 491.875 327.368L487.177 327.122C486.005 327.061 484.954 326.378 484.421 325.332L482.286 321.141C481.753 320.095 481.818 318.844 482.458 317.859L485.02 313.914C485.659 312.93 486.775 312.361 487.948 312.422L492.645 312.669C493.818 312.73 494.868 313.412 495.401 314.458L497.537 318.65C498.07 319.696 498.004 320.947 497.365 321.931L494.803 325.876Z" fill="#00D492"/>
<path opacity="0.34" d="M521.253 366.475C520.866 367.027 520.214 367.331 519.543 367.272L516.852 367.037C516.18 366.978 515.591 366.565 515.306 365.954L514.164 363.506C513.88 362.895 513.942 362.179 514.329 361.626L515.878 359.414C516.265 358.862 516.917 358.558 517.588 358.616L520.279 358.852C520.951 358.911 521.54 359.323 521.825 359.934L522.967 362.382C523.252 362.993 523.189 363.71 522.802 364.262L521.253 366.475Z" fill="#00D492"/>
<rect x="620.09" y="205.625" width="48" height="48" rx="14.0245" transform="rotate(14 620.09 205.625)" fill="#9AE600"/>
<path d="M637.955 225.388C638.395 225.444 638.798 225.664 639.082 226.004C639.366 226.345 639.512 226.78 639.489 227.223L639.474 227.378L639.456 227.473L637.887 233.762C637.833 233.982 637.86 234.215 637.966 234.416C638.071 234.617 638.246 234.772 638.458 234.852L638.562 234.885L644.672 236.408C645.148 236.527 645.558 236.83 645.811 237.251C646.064 237.672 646.139 238.176 646.021 238.653C646.003 238.721 645.979 238.788 645.947 238.85C645.2 240.312 644.079 241.549 642.697 242.435C641.315 243.321 639.723 243.823 638.083 243.891C636.443 243.959 634.815 243.59 633.365 242.822C631.914 242.053 630.694 240.913 629.829 239.519C628.965 238.124 628.486 236.524 628.443 234.883C628.4 233.243 628.793 231.62 629.583 230.181C630.374 228.743 631.532 227.54 632.94 226.696C634.347 225.853 635.954 225.398 637.595 225.38L637.853 225.38L637.955 225.388Z" fill="white"/>
<path d="M641.362 227.477L640.13 232.418C640.07 232.657 640.108 232.909 640.235 233.119C640.361 233.33 640.566 233.481 640.804 233.541L645.746 234.773C645.89 234.809 646.04 234.809 646.184 234.775C646.328 234.741 646.461 234.673 646.574 234.576C646.686 234.48 646.773 234.358 646.829 234.221C646.884 234.083 646.905 233.935 646.892 233.787C646.761 232.409 646.324 231.077 645.61 229.89C644.897 228.702 643.927 227.69 642.771 226.928C642.647 226.846 642.506 226.796 642.359 226.78C642.211 226.764 642.062 226.784 641.924 226.838C641.786 226.891 641.663 226.978 641.565 227.089C641.468 227.2 641.398 227.333 641.362 227.477Z" fill="white"/>
<path d="M637.955 225.388C638.395 225.444 638.798 225.664 639.082 226.004C639.366 226.345 639.512 226.78 639.489 227.223L639.474 227.378L639.456 227.473L637.887 233.762C637.833 233.982 637.86 234.215 637.966 234.416C638.071 234.617 638.246 234.772 638.458 234.852L638.562 234.885L644.672 236.408C645.148 236.527 645.558 236.83 645.811 237.251C646.064 237.672 646.139 238.176 646.021 238.653C646.003 238.721 645.979 238.788 645.947 238.85C645.2 240.312 644.079 241.549 642.697 242.435C641.315 243.321 639.723 243.823 638.083 243.891C636.443 243.959 634.815 243.59 633.365 242.822C631.914 242.053 630.694 240.913 629.829 239.519C628.965 238.124 628.486 236.524 628.443 234.883C628.4 233.243 628.793 231.62 629.583 230.181C630.374 228.743 631.532 227.54 632.94 226.696C634.347 225.853 635.954 225.398 637.595 225.38L637.853 225.38L637.955 225.388Z" fill="white"/>
<path d="M641.362 227.477L640.13 232.418C640.07 232.657 640.108 232.909 640.235 233.119C640.361 233.33 640.566 233.481 640.804 233.541L645.746 234.773C645.89 234.809 646.04 234.809 646.184 234.775C646.328 234.741 646.461 234.673 646.574 234.576C646.686 234.48 646.773 234.358 646.829 234.221C646.884 234.083 646.905 233.935 646.892 233.787C646.761 232.409 646.324 231.077 645.61 229.89C644.897 228.702 643.927 227.69 642.771 226.928C642.647 226.846 642.506 226.796 642.359 226.78C642.211 226.764 642.062 226.784 641.924 226.838C641.786 226.891 641.663 226.978 641.565 227.089C641.468 227.2 641.398 227.333 641.362 227.477Z" fill="white"/>
<rect x="583.512" y="352.336" width="48" height="48" rx="14.0873" transform="rotate(14 583.512 352.336)" fill="#FDC700"/>
<path d="M592.874 372.092L589.44 385.863C588.9 388.028 590.665 389.302 591.983 389.631L608.377 393.719L608.868 391.751L592.487 387.667C591.985 387.529 591.428 387.2 591.626 386.408C591.824 385.615 592.469 385.586 592.977 385.7L609.358 389.784L612.792 376.013C613.062 374.928 612.302 373.801 611.096 373.501L596.888 369.958C595.57 369.629 593.413 369.927 592.874 372.092Z" fill="white"/>
<rect x="543.852" y="230.32" width="48" height="48" rx="15.573" transform="rotate(14 543.852 230.32)" fill="#E12AFB"/>
<path d="M550.7 254.362L549.574 258.878M556.022 252.091L553.207 263.381M561.486 249.257L556.701 268.449M564.901 254.638L562.242 265.3M568.714 258.42L567.385 263.751M572.809 261.073L572.246 263.331" stroke="white" stroke-width="3.29667" stroke-linecap="round" stroke-linejoin="round"/>
<rect x="675.812" y="263.219" width="48" height="48" rx="15.7989" transform="rotate(14 675.812 263.219)" fill="#A684FF"/>
<path d="M691.045 281.581C691.615 281.753 692.129 282.077 692.529 282.518L700.519 291.294C700.883 291.695 701.143 292.18 701.276 292.705C701.408 293.23 701.408 293.78 701.277 294.305C701.146 294.831 700.888 295.316 700.525 295.718C700.161 296.12 699.704 296.425 699.194 296.608L688.019 300.606C687.459 300.807 686.853 300.853 686.269 300.737C685.685 300.621 685.143 300.348 684.701 299.948C684.259 299.548 683.934 299.036 683.76 298.466C683.587 297.896 683.572 297.289 683.716 296.711L686.901 283.936C687.045 283.358 687.343 282.83 687.764 282.408C688.185 281.986 688.713 281.687 689.291 281.541C689.868 281.395 690.475 281.409 691.045 281.581Z" fill="white"/>
<rect x="527.4" y="296.297" width="48" height="48" rx="15.573" transform="rotate(14 527.4 296.297)" fill="#00D492"/>
<path d="M542.302 314.132L540.274 313.626L539.515 316.669L536.472 315.91L535.966 317.939L539.009 318.698L538.25 321.741L540.279 322.247L541.038 319.204L544.081 319.962L544.587 317.934L541.544 317.175L542.302 314.132ZM548.644 318.945L556.759 320.968L556.253 322.997L548.138 320.974L548.644 318.945ZM546.115 329.089L554.23 331.112L553.724 333.141L545.609 331.117L546.115 329.089ZM545.103 333.146L553.218 335.169L552.712 337.198L544.598 335.175L545.103 333.146ZM540.503 326.924L537.598 328.678L535.857 325.766L534.057 326.847L535.811 329.752L532.899 331.493L533.98 333.293L536.885 331.539L538.626 334.451L540.425 333.37L538.672 330.465L541.584 328.724L540.503 326.924Z" fill="white"/>
<rect x="659.361" y="329.195" width="48" height="48" rx="13.0948" transform="rotate(14 659.361 329.195)" fill="#00BCFF"/>
<path d="M675.137 347.764C674.777 347.674 674.396 347.731 674.077 347.923C673.759 348.114 673.53 348.424 673.44 348.784C673.35 349.144 673.407 349.526 673.598 349.844C673.79 350.162 674.099 350.392 674.46 350.482L682.612 352.514C682.972 352.604 683.354 352.547 683.672 352.356C683.99 352.164 684.22 351.855 684.309 351.494C684.399 351.134 684.342 350.753 684.151 350.434C683.96 350.116 683.65 349.887 683.29 349.797L675.137 347.764ZM669.706 352.183C669.796 351.822 670.025 351.512 670.344 351.321C670.662 351.13 671.043 351.073 671.404 351.163L684.991 354.55C685.351 354.64 685.661 354.87 685.852 355.188C686.043 355.506 686.1 355.887 686.011 356.248C685.921 356.608 685.691 356.918 685.373 357.109C685.055 357.301 684.673 357.358 684.313 357.268L670.726 353.88C670.366 353.79 670.056 353.561 669.865 353.243C669.673 352.924 669.616 352.543 669.706 352.183ZM665.634 356.94C665.813 356.219 666.272 355.599 666.909 355.217C667.545 354.834 668.308 354.72 669.029 354.9L685.333 358.965C686.054 359.145 686.674 359.604 687.056 360.24C687.439 360.877 687.553 361.639 687.373 362.36L686.018 367.795C685.838 368.516 685.38 369.136 684.743 369.518C684.106 369.901 683.344 370.015 682.623 369.835L666.318 365.77C665.598 365.59 664.978 365.131 664.595 364.495C664.213 363.858 664.099 363.096 664.279 362.375L665.634 356.94Z" fill="white"/>
<rect x="547.281" y="450.867" width="105.421" height="11.7135" rx="5.85674" fill="#E2E8F0"/>
<rect x="592.463" y="454.219" width="105.421" height="8.36677" rx="4.18339" fill="#E2E8F0"/>
<path opacity="0.6" d="M615.814 319.132C619.837 319.131 623.744 317.784 626.913 315.306L636.877 325.269L640.082 322.065L630.118 312.101C632.598 308.932 633.945 305.024 633.946 300.999C633.946 291.002 625.812 282.867 615.814 282.867C605.816 282.867 597.682 291.002 597.682 300.999C597.682 310.997 605.816 319.132 615.814 319.132ZM615.814 287.4C623.314 287.4 629.413 293.499 629.413 300.999C629.413 308.499 623.314 314.599 615.814 314.599C608.314 314.599 602.215 308.499 602.215 300.999C602.215 293.499 608.314 287.4 615.814 287.4Z" fill="black"/>
</svg>
