<svg width="105" height="105" viewBox="0 0 105 105" fill="none" xmlns="http://www.w3.org/2000/svg">
<path d="M49.0883 18.044C50.1622 15.3187 54.0221 15.3187 55.0961 18.044L63.3608 38.9986C63.5228 39.4115 63.768 39.7866 64.0813 40.1006C64.3946 40.4146 64.7692 40.6606 65.1817 40.8235L86.1404 49.0883C88.8657 50.1622 88.8657 54.0221 86.1404 55.0961L65.1858 63.3608C64.7728 63.5228 64.3977 63.768 64.0837 64.0813C63.7698 64.3946 63.5237 64.7692 63.3608 65.1817L55.0961 86.1404C54.0221 88.8657 50.1622 88.8657 49.0883 86.1404L40.8235 65.1858C40.6616 64.7728 40.4163 64.3977 40.103 64.0837C39.7897 63.7698 39.4152 63.5237 39.0026 63.3608L18.044 55.0961C15.3187 54.0221 15.3187 50.1622 18.044 49.0883L38.9986 40.8235C39.4115 40.6616 39.7866 40.4163 40.1006 40.103C40.4146 39.7897 40.6606 39.4152 40.8235 39.0026L49.0883 18.044Z" fill="#F54900" stroke="#F54900" stroke-width="6.7057" stroke-linecap="round" stroke-linejoin="round"/>
</svg>
