<svg width="86" height="55" viewBox="0 0 86 55" fill="none" xmlns="http://www.w3.org/2000/svg">
<path d="M9.47927 5.80472L29.8176 1.84277C35.0421 0.825034 40.0989 4.23592 41.1124 9.46119L44.6263 27.5778C45.6398 32.8031 42.2262 37.864 37.0017 38.8818L16.6633 42.8437C11.4389 43.8615 6.38205 40.4506 5.36856 35.2253L1.85466 17.1087C0.841173 11.8834 4.25482 6.82245 9.47927 5.80472Z" fill="black"/>
<path fill-rule="evenodd" clip-rule="evenodd" d="M24.3879 28.8387C24.617 28.7988 26.4951 28.4834 28.0026 28.6497C29.6104 28.8276 30.7335 28.5521 31.3267 28.4623C31.9201 28.3729 34.5723 27.7518 36.0702 26.1444C37.5681 24.5375 38.3406 21.8263 37.7652 19.1738C37.1899 16.5219 35.2092 14.2125 30.958 13.2587C27.8539 12.5625 24.4569 12.7915 21.3682 13.3932C18.2799 13.9948 15.0447 15.0578 12.4268 16.8686C8.84154 19.349 7.86798 22.2338 8.32587 24.9087C8.78385 27.584 10.5134 29.8078 12.5036 30.7352C14.4932 31.6632 17.184 31.2436 17.768 31.1035C18.3516 30.9641 19.4954 30.798 20.9196 30.0295C22.3444 29.2615 24.3648 28.8432 24.3648 28.8432L24.3879 28.8387Z" fill="white"/>
<path d="M28.8614 18.7428C27.4688 18.9455 26.4204 19.7354 25.6902 21.0881C25.169 22.053 25.3034 23.1338 25.9898 23.7846C26.6848 24.4441 27.5335 24.3045 28.1517 23.429C29.1027 22.0835 29.8635 21.9304 31.281 22.798C32.2657 23.401 33.1499 23.2049 33.4727 22.2364C33.8329 21.1565 33.477 20.3 32.6366 19.6621C31.4279 18.7446 30.1607 18.4267 28.8614 18.7428Z" fill="black"/>
<path d="M16.1778 21.0768C14.7852 21.2795 13.7368 22.0694 13.0066 23.422C12.4854 24.387 12.6198 25.4678 13.3062 26.1186C14.0013 26.7781 14.8499 26.6385 15.4681 25.7629C16.4191 24.4175 17.1799 24.2643 18.5974 25.1319C19.5821 25.735 20.4663 25.5389 20.7891 24.5704C21.1493 23.4905 20.7935 22.634 19.953 21.996C18.7443 21.0786 17.4771 20.7606 16.1778 21.0768Z" fill="black"/>
<rect x="44.4697" y="5.47703" width="41.3938" height="41.3938" rx="7.71001" transform="rotate(10 44.4697 5.47703)" fill="#FF6900" stroke="#F3F4F6" stroke-width="3.855"/>
<path d="M47.4633 37.1754L60.9539 39.5541M48.4551 31.5508L67.4502 34.9001" stroke="#FFB86A" stroke-width="2.70664" stroke-linecap="round"/>
</svg>
