<svg width="227" height="226" viewBox="0 0 227 226" fill="none" xmlns="http://www.w3.org/2000/svg">
<path d="M134.988 18.3203C157.137 5.0309 181.853 14.8115 196.546 29.5039C211.238 44.1963 221.019 68.9125 207.729 91.0615C201.276 101.817 190.137 110.316 174.652 116.067C174.202 116.235 173.746 116.398 173.287 116.562C180.586 121.899 186.002 128.477 189.555 136.09C199.284 156.938 192.487 180.478 180.857 195.43C174.927 203.054 166.932 209.568 157.572 212.434C147.733 215.446 136.952 214.173 127.58 206.943C121.706 202.412 116.875 195.926 113.023 187.715C109.172 195.926 104.341 202.412 98.4678 206.943C89.0953 214.173 78.3147 215.446 68.4756 212.434C59.1157 209.568 51.1209 203.054 45.1904 195.43C33.5611 180.478 26.7639 156.938 36.4932 136.09C40.0457 128.477 45.4611 121.899 52.7598 116.562C52.3012 116.399 51.8458 116.235 51.3955 116.067C35.9106 110.316 24.7716 101.817 18.3184 91.0615C5.02895 68.9125 14.8095 44.1963 29.502 29.5039C44.1944 14.8115 68.9105 5.0309 91.0596 18.3203C100.056 23.7182 107.472 32.3954 113.023 44.1514C118.575 32.3952 125.992 23.7183 134.988 18.3203ZM100.799 125.506C73.1411 127.794 62.1533 137.856 58.2412 146.239C53.3801 156.656 56.3102 170.635 64.1348 180.695C67.9311 185.576 72.0945 188.442 75.501 189.484C78.4284 190.381 81.0224 190.09 83.8086 187.94C87.092 185.408 91.5372 179.521 95.1123 167.145C98.0115 157.11 100.13 143.5 100.799 125.506ZM125.248 125.506C125.917 143.5 128.036 157.11 130.936 167.145C134.511 179.521 138.956 185.408 142.239 187.94C145.025 190.09 147.619 190.381 150.547 189.484C153.953 188.442 158.117 185.576 161.913 180.695C169.738 170.635 172.668 156.656 167.807 146.239C163.894 137.856 152.906 127.794 125.248 125.506ZM78.7109 38.8994C69.5948 33.43 56.7922 36.155 46.4727 46.4746C36.1531 56.7942 33.4281 69.5967 38.8975 78.7129C41.8237 83.59 47.8806 89.1599 59.752 93.5693C69.5411 97.2053 82.9143 99.8956 100.74 100.742C99.8937 82.9163 97.2034 69.5431 93.5674 59.7539C89.1579 47.8825 83.588 41.8257 78.7109 38.8994ZM179.575 46.4746C169.256 36.1551 156.453 33.4301 147.337 38.8994C142.46 41.8257 136.89 47.8825 132.48 59.7539C128.844 69.5431 126.153 82.9162 125.307 100.742C143.133 99.8957 156.507 97.2054 166.296 93.5693C178.167 89.1599 184.224 83.59 187.15 78.7129C192.62 69.5968 189.895 56.7942 179.575 46.4746Z" fill="#FF64AA" stroke="white" stroke-width="24"/>
<path d="M113.024 113.026C313.121 113.026 113.024 -87.0714 113.024 113.026C268.655 113.026 113.024 313.123 113.024 113.026C113.024 313.123 -42.6073 113.026 113.024 113.026C113.024 -87.0714 -87.0733 113.026 113.024 113.026Z" fill="#FF64AA"/>
<path opacity="0.56" d="M180.338 47.7463C183.705 52.932 182.231 59.8657 177.046 63.2333C171.86 66.6008 164.927 65.127 161.559 59.9414C158.191 54.7558 146.211 47.66 151.396 44.2925C156.582 40.9249 176.97 42.5607 180.338 47.7463Z" fill="#FFDAEB"/>
</svg>
