<svg width="227" height="243" viewBox="0 0 227 243" fill="none" xmlns="http://www.w3.org/2000/svg">
<path d="M89.1777 16.8662C103.925 8.3518 122.094 8.3518 136.842 16.8662L191.705 48.541C206.452 57.0555 215.537 72.7907 215.537 89.8193L215.537 153.169C215.537 170.198 206.452 185.933 191.705 194.447L136.842 226.123C122.095 234.637 103.925 234.637 89.1777 226.123L34.3154 194.447C19.568 185.933 10.4824 170.198 10.4824 153.169L10.4824 89.8193C10.4824 72.7905 19.568 57.0554 34.3154 48.541L89.1777 16.8662Z" fill="#ED6AFF" stroke="white" stroke-width="20.9659"/>
<path d="M115.02 99.0531V56.3864C115.02 45.7466 126.723 39.26 135.746 44.8991L169.879 66.2324C178.368 71.5381 178.368 83.9014 169.879 89.2071L135.746 110.54C126.723 116.18 115.02 109.693 115.02 99.0531Z" fill="#F4A8FF"/>
</svg>
