<svg width="235" height="209" viewBox="0 0 235 209" fill="none" xmlns="http://www.w3.org/2000/svg">
<path d="M49.9766 17.3828C70.5701 7.96958 95.3673 10.4959 117.481 28.4521C139.597 10.496 164.394 7.97469 184.987 17.3916C207.554 27.7113 222.962 51.5254 222.962 78.7402C222.962 105.21 211.88 125.348 197.711 141.302C183.952 156.793 166.353 169.24 153.306 179.517C148.562 183.264 143.159 187.509 137.603 190.757C132.045 194.005 125.2 196.953 117.481 196.953C109.76 196.953 102.913 194 97.3594 190.754C91.802 187.506 86.394 183.26 81.6543 179.524L81.6514 179.522C68.6141 169.241 51.0125 156.788 37.2549 141.298C23.0854 125.344 12 105.206 12 78.7305C12.0001 51.5116 27.408 27.6991 49.9766 17.3828Z" fill="#FF6467" stroke="white" stroke-width="24"/>
<mask id="mask0_1937_5316" style="mask-type:alpha" maskUnits="userSpaceOnUse" x="24" y="24" width="187" height="161">
<path d="M24 78.7308C24 124.191 61.5794 148.412 89.0816 170.099C98.785 177.746 108.133 184.953 117.481 184.953C126.829 184.953 136.177 177.755 145.881 170.09C173.392 148.421 210.962 124.191 210.962 78.7401C210.962 33.2895 159.548 1.02917 117.481 44.741C75.4147 1.02917 24 33.2708 24 78.7308Z" fill="#FF6467"/>
</mask>
<g mask="url(#mask0_1937_5316)">
<path opacity="0.41" d="M117.464 45.6355C119.087 8.94591 82.4907 11.0629 -13.9553 10.8828L-13.9553 281.978L38.004 220.134C-0.615869 114.265 27.0987 45.6355 117.464 45.6355Z" fill="#FFBFC0"/>
<path d="M185.176 -12.9609L318.968 46.6072L208.704 294.265L74.9113 234.697C153.253 153.69 194.959 107.284 185.176 -12.9609Z" fill="#FF2024"/>
<path opacity="0.41" d="M98.7695 12.1953L244.867 1.97921L263.777 272.414L117.68 282.63C148.821 174.326 163.859 113.772 98.7695 12.1953Z" fill="#FF2024"/>
<path opacity="0.41" d="M-26.8125 41.8672L-86.3807 175.659L161.277 285.924L220.846 152.132C108.422 144.352 46.3764 137.772 -26.8125 41.8672Z" fill="#CA1A1D"/>
</g>
<path d="M88.8695 41.4888C88.8695 51.8145 71.1508 74.2081 60.8251 74.2081C50.4995 74.2081 42.1289 65.8376 42.1289 55.5119C42.1289 45.1863 51.0527 38.0202 60.8251 34.6859C71.3334 31.1006 88.8695 31.1632 88.8695 41.4888Z" fill="url(#paint0_linear_1937_5316)"/>
<path d="M55.7913 61.5929C57.8086 66.3453 55.639 77.2932 50.8866 79.3104C46.1342 81.3277 40.6463 79.1104 38.629 74.358C36.6117 69.6055 39.3189 64.5639 43.1653 61.1201C47.3013 57.417 53.774 56.8404 55.7913 61.5929Z" fill="url(#paint1_linear_1937_5316)"/>
<defs>
<linearGradient id="paint0_linear_1937_5316" x1="55.1347" y1="51.8241" x2="66.0409" y2="72.0784" gradientUnits="userSpaceOnUse">
<stop stop-color="white" stop-opacity="0.4"/>
<stop offset="1" stop-color="#FF6467"/>
</linearGradient>
<linearGradient id="paint1_linear_1937_5316" x1="43.8941" y1="70.1191" x2="52.8707" y2="77.3105" gradientUnits="userSpaceOnUse">
<stop stop-color="white" stop-opacity="0.4"/>
<stop offset="1" stop-color="#FF6467"/>
</linearGradient>
</defs>
</svg>
