<svg width="236" height="228" viewBox="0 0 236 228" fill="none" xmlns="http://www.w3.org/2000/svg">
<path d="M118.647 12.0137C122.643 12.1532 126.359 13.3289 129.676 15.2207C134.064 17.7233 137.186 21.486 139.043 25.918L156.789 68.0352L202.751 72.0625L203.077 72.0908L203.4 72.1377C207.515 72.7255 211.934 74.2138 215.635 77.4521C218.769 80.1948 220.948 83.6007 222.299 87.3154C223.807 91.4624 224.094 95.817 223.169 100.113C222.107 105.046 219.447 109.074 215.997 112.153L215.925 112.218L215.852 112.281L181.053 142.345L191.467 187.079L191.47 187.091L191.473 187.102C192.537 191.712 192.311 196.681 190.069 201.397C188.367 204.979 185.906 208.077 182.735 210.529C179.16 213.294 175.021 214.807 170.676 215.184C165.706 215.614 161.069 214.321 157.076 211.822L117.844 188.187L78.6113 211.822C74.6248 214.31 70.0035 215.6 65.0527 215.188C60.6775 214.823 56.5139 213.299 52.9268 210.509C49.7811 208.062 47.329 204.98 45.627 201.413C43.3725 196.688 43.1561 191.711 44.2148 187.109L44.2178 187.095L44.2217 187.079L54.6348 142.345L19.8369 112.281L19.7451 112.201L19.6543 112.12C16.2273 109.036 13.5879 105.015 12.5303 100.103C11.6093 95.8246 11.8849 91.482 13.3818 87.3389L13.6445 86.6426C15.0082 83.181 17.1142 80.0264 20.0508 77.4551C23.7561 74.2107 28.1782 72.7148 32.3164 72.1338L32.626 72.0898L32.9375 72.0625L78.8984 68.0352L96.6465 25.918C98.5033 21.4861 101.625 17.7232 106.013 15.2207L106.682 14.8516C110.051 13.0568 113.813 12 117.845 12L118.647 12.0137Z" fill="#FDC700" stroke="white" stroke-width="24"/>
<mask id="mask0_1937_5326" style="mask-type:alpha" maskUnits="userSpaceOnUse" x="24" y="24" width="188" height="180">
<path d="M117.853 29.4971C118.805 29.4971 119.84 29.7458 121.023 30.4209C121.813 30.871 122.449 31.5404 122.933 32.7012L122.937 32.7109L122.941 32.7207L143.495 81.502L144.777 84.5459L148.067 84.834L201.053 89.4756C202.821 89.7442 203.701 90.2483 204.131 90.624C204.828 91.2343 205.43 92.0739 205.878 93.3047C206.254 94.3382 206.325 95.3465 206.088 96.4502C205.914 97.2578 205.466 98.1359 204.386 99.1064L164.146 133.873L161.64 136.038L162.391 139.264L174.449 191.059C174.759 192.407 174.595 193.265 174.289 193.909C173.736 195.073 172.997 195.984 172.05 196.716C171.287 197.305 170.384 197.679 169.175 197.784C168.29 197.861 167.381 197.676 166.299 196.983L166.236 196.943L166.173 196.905L120.681 169.5L117.853 167.796L115.023 169.5L69.5313 196.905L69.4736 196.939L69.417 196.976C68.3291 197.668 67.4095 197.857 66.5117 197.782C65.3166 197.683 64.4238 197.314 63.667 196.726C62.7085 195.98 61.9655 195.061 61.4121 193.901C61.1121 193.273 60.9443 192.419 61.2549 191.059L73.3135 139.264L74.0645 136.038L71.5586 133.873L31.3418 99.1279C30.2566 98.1469 29.8042 97.2577 29.6279 96.4395C29.3886 95.3275 29.46 94.3194 29.8301 93.2949C30.2676 92.084 30.8652 91.244 31.5742 90.623C32.0126 90.2392 32.8932 89.7377 34.6455 89.4766L87.6367 84.834L90.9268 84.5459L92.21 81.502L112.764 32.7207L112.771 32.7012C113.255 31.5405 113.892 30.871 114.681 30.4209C115.864 29.7457 116.9 29.4971 117.853 29.4971Z" fill="#FDC700" stroke="white" stroke-width="10.962"/>
</mask>
<g mask="url(#mask0_1937_5326)">
<path d="M129.686 33.3075L224.186 18.1875L224.186 250.028L86.8457 250.028C143.546 171.908 170.312 119.263 129.686 33.3075Z" fill="#FE9A36"/>
<path opacity="0.45" d="M188.772 35.4974L276.261 74.2851L149.992 268.722L34.809 193.922C124.909 159.286 176.029 129.712 188.772 35.4974Z" fill="#FE9A36"/>
<path opacity="0.45" d="M53.0457 37.8835L118.204 -32.2112L260.939 150.481L152.713 235.036C149.298 138.569 137.979 80.6052 53.0457 37.8835Z" fill="#FE9A36"/>
<path opacity="0.3" d="M167.489 35.3523L102.331 -34.7424L-40.4037 147.95L67.8217 232.505C71.237 136.037 82.5563 78.074 167.489 35.3523Z" fill="white"/>
</g>
<circle opacity="0.56" cx="93.123" cy="92.5175" r="10.08" fill="white"/>
<circle opacity="0.56" cx="109.52" cy="110.155" r="3.78" fill="white"/>
</svg>
